<svg width="22" height="18" viewBox="0 0 22 18" fill="none" xmlns="http://www.w3.org/2000/svg">
<path d="M11 7.75C12.63 7.75 13.07 8.14 14.24 8.65C15.32 9.13 16 10.21 16 11.38V17C16 17.5523 15.5523 18 15 18H7C6.44772 18 6 17.5523 6 17V11.39C6 10.21 6.68 9.13 7.76 8.66C8.93 8.14 9.37 7.75 11 7.75ZM4 8C5.1 8 6 7.1 6 6C6 4.9 5.1 4 4 4C2.9 4 2 4.9 2 6C2 7.1 2.9 8 4 8ZM5.13 9.1C4.76 9.04 4.39 9 4 9C3.01 9 2.07 9.21 1.22 9.58C0.48 9.9 0 10.62 0 11.43V17C0 17.5523 0.447715 18 1 18H3.5C4.05228 18 4.5 17.5523 4.5 17V11.39C4.5 10.56 4.73 9.78 5.13 9.1ZM18 8C19.1 8 20 7.1 20 6C20 4.9 19.1 4 18 4C16.9 4 16 4.9 16 6C16 7.1 16.9 8 18 8ZM22 11.43C22 10.62 21.52 9.9 20.78 9.58C19.93 9.21 18.99 9 18 9C17.61 9 17.24 9.04 16.87 9.1C17.27 9.78 17.5 10.56 17.5 11.39V17C17.5 17.5523 17.9477 18 18.5 18H21C21.5523 18 22 17.5523 22 17V11.43ZM11 0C12.66 0 14 1.34 14 3C14 4.66 12.66 6 11 6C9.34 6 8 4.66 8 3C8 1.34 9.34 0 11 0Z" fill="#0B4EE5"/>
</svg>
