<svg width="131" height="32" viewBox="0 0 131 32" fill="none" xmlns="http://www.w3.org/2000/svg">
<path d="M53.3203 15.9453C52.5859 15.9453 52.013 16.2474 51.6016 16.8516C51.1901 17.4505 50.9844 18.2786 50.9844 19.3359C50.9844 21.5339 51.8203 22.6328 53.4922 22.6328C53.9974 22.6328 54.487 22.5625 54.9609 22.4219C55.4349 22.2812 55.9115 22.112 56.3906 21.9141V24.5234C55.4375 24.9453 54.3594 25.1562 53.1562 25.1562C51.4323 25.1562 50.1094 24.6562 49.1875 23.6562C48.2708 22.6562 47.8125 21.2109 47.8125 19.3203C47.8125 18.138 48.0339 17.099 48.4766 16.2031C48.9245 15.3073 49.5651 14.6198 50.3984 14.1406C51.237 13.6562 52.2214 13.4141 53.3516 13.4141C54.5859 13.4141 55.7656 13.6823 56.8906 14.2188L55.9453 16.6484C55.5234 16.4505 55.1016 16.2839 54.6797 16.1484C54.2578 16.013 53.8047 15.9453 53.3203 15.9453ZM64.2188 25L63.6328 23.8281H63.5703C63.1589 24.3385 62.7396 24.6875 62.3125 24.875C61.8854 25.0625 61.3333 25.1562 60.6562 25.1562C59.8229 25.1562 59.1667 24.9062 58.6875 24.4062C58.2083 23.9062 57.9688 23.2031 57.9688 22.2969C57.9688 21.3542 58.2969 20.6536 58.9531 20.1953C59.6094 19.7318 60.5599 19.4714 61.8047 19.4141L63.2812 19.3672V19.2422C63.2812 18.513 62.9219 18.1484 62.2031 18.1484C61.5573 18.1484 60.737 18.3672 59.7422 18.8047L58.8594 16.7891C59.8906 16.2578 61.1927 15.9922 62.7656 15.9922C63.901 15.9922 64.7786 16.2734 65.3984 16.8359C66.0234 17.3984 66.3359 18.1849 66.3359 19.1953V25H64.2188ZM61.9531 23C62.3229 23 62.638 22.8828 62.8984 22.6484C63.1641 22.4141 63.2969 22.1094 63.2969 21.7344V21.0469L62.5938 21.0781C61.5885 21.1146 61.0859 21.4844 61.0859 22.1875C61.0859 22.7292 61.375 23 61.9531 23ZM75.25 22.2812C75.25 23.2292 74.9271 23.9453 74.2812 24.4297C73.6354 24.9141 72.7083 25.1562 71.5 25.1562C70.8438 25.1562 70.2734 25.1198 69.7891 25.0469C69.3047 24.9792 68.8099 24.8516 68.3047 24.6641V22.2188C68.7786 22.4271 69.2969 22.599 69.8594 22.7344C70.4271 22.8698 70.9323 22.9375 71.375 22.9375C72.0365 22.9375 72.3672 22.7865 72.3672 22.4844C72.3672 22.3281 72.2734 22.1901 72.0859 22.0703C71.9036 21.9453 71.3672 21.7057 70.4766 21.3516C69.6641 21.0182 69.0964 20.6406 68.7734 20.2188C68.4505 19.7917 68.2891 19.2526 68.2891 18.6016C68.2891 17.7786 68.6068 17.138 69.2422 16.6797C69.8776 16.2214 70.776 15.9922 71.9375 15.9922C72.5208 15.9922 73.0677 16.0573 73.5781 16.1875C74.0938 16.3125 74.6276 16.4974 75.1797 16.7422L74.3516 18.7109C73.9453 18.5286 73.5156 18.375 73.0625 18.25C72.6094 18.1198 72.2396 18.0547 71.9531 18.0547C71.4531 18.0547 71.2031 18.1771 71.2031 18.4219C71.2031 18.5729 71.2891 18.7031 71.4609 18.8125C71.638 18.9167 72.1432 19.1328 72.9766 19.4609C73.5964 19.7161 74.0573 19.9661 74.3594 20.2109C74.6667 20.4557 74.8906 20.7448 75.0312 21.0781C75.1771 21.4062 75.25 21.8073 75.25 22.2812ZM82.5156 25V20.1719C82.5156 18.9844 82.1641 18.3906 81.4609 18.3906C80.9609 18.3906 80.5911 18.6016 80.3516 19.0234C80.1172 19.4401 80 20.1354 80 21.1094V25H76.9453V12.8438H80V14.5703C80 15.3516 79.9583 16.2422 79.875 17.2422H80.0156C80.3073 16.7839 80.6536 16.4609 81.0547 16.2734C81.4557 16.0859 81.9219 15.9922 82.4531 15.9922C83.4427 15.9922 84.2109 16.2786 84.7578 16.8516C85.3099 17.4193 85.5859 18.2161 85.5859 19.2422V25H82.5156ZM92.9297 15.9453C92.1953 15.9453 91.6224 16.2474 91.2109 16.8516C90.7995 17.4505 90.5938 18.2786 90.5938 19.3359C90.5938 21.5339 91.4297 22.6328 93.1016 22.6328C93.6068 22.6328 94.0964 22.5625 94.5703 22.4219C95.0443 22.2812 95.5208 22.112 96 21.9141V24.5234C95.0469 24.9453 93.9688 25.1562 92.7656 25.1562C91.0417 25.1562 89.7188 24.6562 88.7969 23.6562C87.8802 22.6562 87.4219 21.2109 87.4219 19.3203C87.4219 18.138 87.6432 17.099 88.0859 16.2031C88.5339 15.3073 89.1745 14.6198 90.0078 14.1406C90.8464 13.6562 91.8307 13.4141 92.9609 13.4141C94.1953 13.4141 95.375 13.6823 96.5 14.2188L95.5547 16.6484C95.1328 16.4505 94.7109 16.2839 94.2891 16.1484C93.8672 16.013 93.4141 15.9453 92.9297 15.9453ZM109.109 25H105.062L100.891 16.9531H100.82C100.919 18.2188 100.969 19.1849 100.969 19.8516V25H98.2344V13.5781H102.266L106.422 21.5156H106.469C106.396 20.3646 106.359 19.4401 106.359 18.7422V13.5781H109.109V25ZM116.617 25H113.531V16.1016H110.742V13.5781H119.398V16.1016H116.617V25ZM124.117 20.8438V25H121.031V13.5781H124.773C127.878 13.5781 129.43 14.7031 129.43 16.9531C129.43 18.276 128.784 19.2995 127.492 20.0234L130.82 25H127.32L124.898 20.8438H124.117ZM124.117 18.5234H124.695C125.773 18.5234 126.312 18.0469 126.312 17.0938C126.312 16.3073 125.784 15.9141 124.727 15.9141H124.117V18.5234Z" fill="#071C44"/>
<g clip-path="url(#clip0)">
<path d="M31 7.57516V7.56001H30.9844L30.9453 7.53981L22.4034 0L21.6531 5.33291H8.04177L0 0L0.521008 14.3928H0.554874L0.521008 28.7856L5.21008 31.9899V32.0126H31V7.57516ZM9.26353 11.3627H26.9492V28.1543H9.26353V11.3627Z" fill="#071C44"/>
<path d="M11.9832 24.2405H15.8908V22.473L14.3277 21.5261L15.8908 19.9479V13.6353H11.9832V24.2405Z" fill="#071C44"/>
<path d="M20.3193 24.2405H24.2269V22.473L22.6639 21.5261L24.2269 19.9479V13.6353H20.3193V24.2405Z" fill="#071C44"/>
</g>
<defs>
<clipPath id="clip0">
<rect width="31" height="32" fill="white"/>
</clipPath>
</defs>
</svg>
