<svg width="24" height="24" viewBox="0 0 24 24" fill="none" xmlns="http://www.w3.org/2000/svg">
<path d="M21.4286 0H2.57143C1.125 0 0 1.17857 0 2.57143V21.4286C0 22.875 1.125 24 2.57143 24H9.91071V15.8571H6.53571V12H9.91071V9.10714C9.91071 5.78571 11.8929 3.91071 14.8929 3.91071C16.3929 3.91071 17.8929 4.17857 17.8929 4.17857V7.44643H16.2321C14.5714 7.44643 14.0357 8.46429 14.0357 9.53571V12H17.7321L17.1429 15.8571H14.0357V24H21.4286C22.8214 24 24 22.875 24 21.4286V2.57143C24 1.17857 22.8214 0 21.4286 0Z" fill="#071C44"/>
</svg>
