<svg width="24" height="24" viewBox="0 0 24 24" fill="none" xmlns="http://www.w3.org/2000/svg">
<path d="M5.35714 23.9733V7.95543H0.375V23.9733H5.35714ZM2.83929 5.81257C4.44643 5.81257 5.73214 4.47328 5.73214 2.86614C5.73214 1.31257 4.44643 0.0268555 2.83929 0.0268555C1.28571 0.0268555 0 1.31257 0 2.86614C0 4.47328 1.28571 5.81257 2.83929 5.81257ZM23.9464 23.9733H24V15.1876C24 10.9019 23.0357 7.58043 18 7.58043C15.5893 7.58043 13.9821 8.91971 13.2857 10.1519H13.2321V7.95543H8.46429V23.9733H13.4464V16.0447C13.4464 13.9554 13.8214 11.9733 16.3929 11.9733C18.9643 11.9733 19.0179 14.3304 19.0179 16.2054V23.9733H23.9464Z" fill="#071C44"/>
</svg>
