<svg width="24" height="20" viewBox="0 0 24 20" fill="none" xmlns="http://www.w3.org/2000/svg">
<path d="M21.5577 5.09197C22.4971 4.38747 23.3425 3.54207 24 2.55576C23.1546 2.9315 22.1683 3.2133 21.182 3.30723C22.2153 2.69666 22.9667 1.75733 23.3425 0.583162C22.4031 1.14676 21.3229 1.56946 20.2427 1.8043C19.3033 0.817995 18.0352 0.254395 16.6262 0.254395C13.9022 0.254395 11.6947 2.46183 11.6947 5.1859C11.6947 5.56164 11.7417 5.93737 11.8356 6.3131C7.74951 6.07827 4.08611 4.10567 1.64384 1.14676C1.22114 1.85126 0.986301 2.69666 0.986301 3.636C0.986301 5.3268 1.8317 6.82974 3.19374 7.7221C2.3953 7.67514 1.59687 7.48727 0.939335 7.11154V7.1585C0.939335 9.55381 2.63014 11.5264 4.88454 11.9961C4.50881 12.09 4.03914 12.1839 3.61644 12.1839C3.28767 12.1839 3.00587 12.137 2.6771 12.09C3.28767 14.0626 5.11937 15.4716 7.27984 15.5186C5.58904 16.8337 3.47554 17.6321 1.17417 17.6321C0.751468 17.6321 0.375734 17.5851 0 17.5382C2.16047 18.9472 4.74364 19.7456 7.56164 19.7456C16.6262 19.7456 21.5577 12.2779 21.5577 5.7495C21.5577 5.51467 21.5577 5.3268 21.5577 5.09197Z" fill="#071C44"/>
</svg>
